<mxfile host="app.diagrams.net" modified="2022-10-18T22:59:40.814Z" agent="5.0 (Macintosh; Intel Mac OS X 10_15_7) AppleWebKit/537.36 (KHTML, like Gecko) Chrome/106.0.0.0 Safari/537.36" etag="17Sc5H64dHHJMOxu4rzD" version="20.4.1" type="github">
  <diagram id="VVoB2Av43Fi3W9B-QjCe" name="Page-1">
    <mxGraphModel dx="1875" dy="1765" grid="1" gridSize="10" guides="1" tooltips="1" connect="1" arrows="1" fold="1" page="1" pageScale="1" pageWidth="827" pageHeight="1169" math="0" shadow="0">
      <root>
        <mxCell id="0" />
        <mxCell id="1" parent="0" />
        <mxCell id="lnDxNCK4FpN4E7dMN71w-2" value="CUSTOMER" style="whiteSpace=wrap;html=1;align=center;" parent="1" vertex="1">
          <mxGeometry x="260" y="-120" width="100" height="40" as="geometry" />
        </mxCell>
        <mxCell id="lnDxNCK4FpN4E7dMN71w-7" value="" style="endArrow=none;html=1;rounded=0;" parent="1" target="lnDxNCK4FpN4E7dMN71w-13" edge="1">
          <mxGeometry relative="1" as="geometry">
            <mxPoint x="309.5" y="-120" as="sourcePoint" />
            <mxPoint x="310" y="-160" as="targetPoint" />
          </mxGeometry>
        </mxCell>
        <mxCell id="lnDxNCK4FpN4E7dMN71w-8" value="" style="line;strokeWidth=1;rotatable=0;dashed=0;labelPosition=right;align=left;verticalAlign=middle;spacingTop=0;spacingLeft=6;points=[];portConstraint=eastwest;flipV=0;flipH=1;direction=west;" parent="1" vertex="1">
          <mxGeometry x="210" y="-105" width="50" height="10" as="geometry" />
        </mxCell>
        <mxCell id="lnDxNCK4FpN4E7dMN71w-10" value="" style="endArrow=none;html=1;rounded=0;" parent="1" target="lnDxNCK4FpN4E7dMN71w-12" edge="1">
          <mxGeometry relative="1" as="geometry">
            <mxPoint x="360" y="-120" as="sourcePoint" />
            <mxPoint x="370" y="-160" as="targetPoint" />
          </mxGeometry>
        </mxCell>
        <mxCell id="lnDxNCK4FpN4E7dMN71w-11" value="" style="endArrow=none;html=1;rounded=0;" parent="1" edge="1">
          <mxGeometry relative="1" as="geometry">
            <mxPoint x="270" y="-120" as="sourcePoint" />
            <mxPoint x="250" y="-160" as="targetPoint" />
          </mxGeometry>
        </mxCell>
        <mxCell id="lnDxNCK4FpN4E7dMN71w-12" value="&lt;span style=&quot;border-bottom: 1px dotted&quot;&gt;Cus_ID&lt;/span&gt;" style="ellipse;whiteSpace=wrap;html=1;align=center;" parent="1" vertex="1">
          <mxGeometry x="350" y="-220" width="100" height="40" as="geometry" />
        </mxCell>
        <mxCell id="lnDxNCK4FpN4E7dMN71w-13" value="Name" style="ellipse;whiteSpace=wrap;html=1;align=center;" parent="1" vertex="1">
          <mxGeometry x="240" y="-230" width="100" height="40" as="geometry" />
        </mxCell>
        <mxCell id="lnDxNCK4FpN4E7dMN71w-14" value="F_Name" style="ellipse;whiteSpace=wrap;html=1;align=center;" parent="1" vertex="1">
          <mxGeometry x="191" y="-310" width="100" height="40" as="geometry" />
        </mxCell>
        <mxCell id="lnDxNCK4FpN4E7dMN71w-15" value="L_Name" style="ellipse;whiteSpace=wrap;html=1;align=center;" parent="1" vertex="1">
          <mxGeometry x="310" y="-310" width="100" height="40" as="geometry" />
        </mxCell>
        <mxCell id="lnDxNCK4FpN4E7dMN71w-16" value="" style="endArrow=none;html=1;rounded=0;exitX=0.5;exitY=1;exitDx=0;exitDy=0;entryX=0.39;entryY=1.025;entryDx=0;entryDy=0;entryPerimeter=0;" parent="1" source="lnDxNCK4FpN4E7dMN71w-14" target="lnDxNCK4FpN4E7dMN71w-15" edge="1">
          <mxGeometry relative="1" as="geometry">
            <mxPoint x="230" y="-260" as="sourcePoint" />
            <mxPoint x="360" y="-260" as="targetPoint" />
            <Array as="points">
              <mxPoint x="290" y="-230" />
            </Array>
          </mxGeometry>
        </mxCell>
        <mxCell id="lnDxNCK4FpN4E7dMN71w-18" value="Contact_Num" style="ellipse;shape=doubleEllipse;margin=3;whiteSpace=wrap;html=1;align=center;" parent="1" vertex="1">
          <mxGeometry x="160" y="-190" width="100" height="40" as="geometry" />
        </mxCell>
        <mxCell id="lnDxNCK4FpN4E7dMN71w-19" value="Address" style="ellipse;whiteSpace=wrap;html=1;align=center;" parent="1" vertex="1">
          <mxGeometry x="110" y="-120" width="100" height="40" as="geometry" />
        </mxCell>
        <mxCell id="lnDxNCK4FpN4E7dMN71w-21" value="" style="endArrow=none;html=1;rounded=0;" parent="1" edge="1">
          <mxGeometry relative="1" as="geometry">
            <mxPoint x="60" y="-70" as="sourcePoint" />
            <mxPoint x="70" y="-140" as="targetPoint" />
            <Array as="points">
              <mxPoint x="110" y="-100" />
            </Array>
          </mxGeometry>
        </mxCell>
        <mxCell id="lnDxNCK4FpN4E7dMN71w-22" value="Street_Num" style="ellipse;whiteSpace=wrap;html=1;align=center;" parent="1" vertex="1">
          <mxGeometry x="-30" y="-80" width="100" height="40" as="geometry" />
        </mxCell>
        <mxCell id="lnDxNCK4FpN4E7dMN71w-23" value="" style="ellipse;whiteSpace=wrap;html=1;align=center;" parent="1" vertex="1">
          <mxGeometry x="-30" y="-170" width="100" height="40" as="geometry" />
        </mxCell>
        <mxCell id="BWCoMym-XM0AaywVuSAr-4" value="" style="endArrow=none;html=1;rounded=0;exitX=1;exitY=0.5;exitDx=0;exitDy=0;" edge="1" parent="1" source="lnDxNCK4FpN4E7dMN71w-2" target="BWCoMym-XM0AaywVuSAr-6">
          <mxGeometry relative="1" as="geometry">
            <mxPoint x="435" y="-95" as="sourcePoint" />
            <mxPoint x="365" y="-95" as="targetPoint" />
          </mxGeometry>
        </mxCell>
        <mxCell id="BWCoMym-XM0AaywVuSAr-5" value="1" style="resizable=0;html=1;align=right;verticalAlign=bottom;" connectable="0" vertex="1" parent="BWCoMym-XM0AaywVuSAr-4">
          <mxGeometry x="1" relative="1" as="geometry" />
        </mxCell>
        <mxCell id="BWCoMym-XM0AaywVuSAr-39" value="" style="edgeStyle=orthogonalEdgeStyle;rounded=0;orthogonalLoop=1;jettySize=auto;html=1;" edge="1" parent="1" source="BWCoMym-XM0AaywVuSAr-6" target="BWCoMym-XM0AaywVuSAr-7">
          <mxGeometry relative="1" as="geometry" />
        </mxCell>
        <mxCell id="BWCoMym-XM0AaywVuSAr-6" value="Has" style="shape=rhombus;perimeter=rhombusPerimeter;whiteSpace=wrap;html=1;align=center;" vertex="1" parent="1">
          <mxGeometry x="450" y="-130" width="120" height="60" as="geometry" />
        </mxCell>
        <mxCell id="BWCoMym-XM0AaywVuSAr-7" value="Account" style="whiteSpace=wrap;html=1;align=center;" vertex="1" parent="1">
          <mxGeometry x="640" y="-120" width="100" height="40" as="geometry" />
        </mxCell>
        <mxCell id="BWCoMym-XM0AaywVuSAr-9" value="N" style="endArrow=none;html=1;rounded=0;" edge="1" parent="1">
          <mxGeometry relative="1" as="geometry">
            <mxPoint x="570" y="-100" as="sourcePoint" />
            <mxPoint x="640" y="-100" as="targetPoint" />
          </mxGeometry>
        </mxCell>
        <mxCell id="BWCoMym-XM0AaywVuSAr-10" value="" style="endArrow=none;html=1;rounded=0;exitX=0.5;exitY=0;exitDx=0;exitDy=0;" edge="1" parent="1" source="BWCoMym-XM0AaywVuSAr-7" target="BWCoMym-XM0AaywVuSAr-11">
          <mxGeometry relative="1" as="geometry">
            <mxPoint x="700" y="-170" as="sourcePoint" />
            <mxPoint x="700" y="-120" as="targetPoint" />
          </mxGeometry>
        </mxCell>
        <mxCell id="BWCoMym-XM0AaywVuSAr-11" value="&lt;u&gt;Acct_Num&lt;/u&gt;" style="ellipse;shape=doubleEllipse;margin=3;whiteSpace=wrap;html=1;align=center;" vertex="1" parent="1">
          <mxGeometry x="640" y="-210" width="100" height="40" as="geometry" />
        </mxCell>
        <mxCell id="BWCoMym-XM0AaywVuSAr-12" value="Transaction" style="ellipse;whiteSpace=wrap;html=1;align=center;" vertex="1" parent="1">
          <mxGeometry x="780" y="-120" width="100" height="40" as="geometry" />
        </mxCell>
        <mxCell id="BWCoMym-XM0AaywVuSAr-13" value="" style="endArrow=none;html=1;rounded=0;entryX=0;entryY=0.5;entryDx=0;entryDy=0;" edge="1" parent="1" target="BWCoMym-XM0AaywVuSAr-12">
          <mxGeometry relative="1" as="geometry">
            <mxPoint x="740" y="-100.5" as="sourcePoint" />
            <mxPoint x="790" y="-100" as="targetPoint" />
          </mxGeometry>
        </mxCell>
        <mxCell id="BWCoMym-XM0AaywVuSAr-14" value="Branch" style="whiteSpace=wrap;html=1;align=center;" vertex="1" parent="1">
          <mxGeometry x="450" y="120" width="100" height="40" as="geometry" />
        </mxCell>
        <mxCell id="BWCoMym-XM0AaywVuSAr-15" value="Branch_Id" style="ellipse;whiteSpace=wrap;html=1;align=center;fontStyle=4;" vertex="1" parent="1">
          <mxGeometry x="630" y="130" width="100" height="40" as="geometry" />
        </mxCell>
        <mxCell id="BWCoMym-XM0AaywVuSAr-16" value="Branch_Staff" style="ellipse;whiteSpace=wrap;html=1;align=center;" vertex="1" parent="1">
          <mxGeometry x="550" y="220" width="100" height="40" as="geometry" />
        </mxCell>
        <mxCell id="BWCoMym-XM0AaywVuSAr-17" value="Branch_Address" style="ellipse;whiteSpace=wrap;html=1;align=center;" vertex="1" parent="1">
          <mxGeometry x="330" y="210" width="100" height="40" as="geometry" />
        </mxCell>
        <mxCell id="BWCoMym-XM0AaywVuSAr-19" value="" style="endArrow=none;html=1;rounded=0;entryX=0;entryY=1;entryDx=0;entryDy=0;" edge="1" parent="1" target="BWCoMym-XM0AaywVuSAr-14">
          <mxGeometry relative="1" as="geometry">
            <mxPoint x="390" y="210" as="sourcePoint" />
            <mxPoint x="440" y="180" as="targetPoint" />
          </mxGeometry>
        </mxCell>
        <mxCell id="BWCoMym-XM0AaywVuSAr-21" value="" style="endArrow=none;html=1;rounded=0;entryX=0.75;entryY=1;entryDx=0;entryDy=0;exitX=0.5;exitY=0;exitDx=0;exitDy=0;" edge="1" parent="1" source="BWCoMym-XM0AaywVuSAr-16" target="BWCoMym-XM0AaywVuSAr-14">
          <mxGeometry relative="1" as="geometry">
            <mxPoint x="542" y="232" as="sourcePoint" />
            <mxPoint x="518" y="180" as="targetPoint" />
          </mxGeometry>
        </mxCell>
        <mxCell id="BWCoMym-XM0AaywVuSAr-25" value="N" style="endArrow=none;html=1;rounded=0;exitX=0.5;exitY=1;exitDx=0;exitDy=0;entryX=0;entryY=0;entryDx=0;entryDy=0;startArrow=none;" edge="1" parent="1" source="BWCoMym-XM0AaywVuSAr-26" target="BWCoMym-XM0AaywVuSAr-14">
          <mxGeometry relative="1" as="geometry">
            <mxPoint x="400" y="20" as="sourcePoint" />
            <mxPoint x="560" y="20" as="targetPoint" />
          </mxGeometry>
        </mxCell>
        <mxCell id="BWCoMym-XM0AaywVuSAr-26" value="Has" style="shape=rhombus;perimeter=rhombusPerimeter;whiteSpace=wrap;html=1;align=center;rotation=-30;" vertex="1" parent="1">
          <mxGeometry x="320" y="-20" width="120" height="60" as="geometry" />
        </mxCell>
        <mxCell id="BWCoMym-XM0AaywVuSAr-27" value="M" style="endArrow=none;html=1;rounded=0;exitX=0.5;exitY=1;exitDx=0;exitDy=0;entryX=0.5;entryY=0;entryDx=0;entryDy=0;" edge="1" parent="1" source="lnDxNCK4FpN4E7dMN71w-2" target="BWCoMym-XM0AaywVuSAr-26">
          <mxGeometry relative="1" as="geometry">
            <mxPoint x="310" y="-80" as="sourcePoint" />
            <mxPoint x="450" y="140" as="targetPoint" />
          </mxGeometry>
        </mxCell>
        <mxCell id="BWCoMym-XM0AaywVuSAr-29" value="" style="endArrow=none;html=1;rounded=0;entryX=0;entryY=0.5;entryDx=0;entryDy=0;" edge="1" parent="1" target="BWCoMym-XM0AaywVuSAr-15">
          <mxGeometry relative="1" as="geometry">
            <mxPoint x="550" y="150" as="sourcePoint" />
            <mxPoint x="590" y="150" as="targetPoint" />
          </mxGeometry>
        </mxCell>
        <mxCell id="BWCoMym-XM0AaywVuSAr-31" value="Branch_Name" style="ellipse;whiteSpace=wrap;html=1;align=center;" vertex="1" parent="1">
          <mxGeometry x="430" y="270" width="100" height="40" as="geometry" />
        </mxCell>
        <mxCell id="BWCoMym-XM0AaywVuSAr-32" value="" style="endArrow=none;html=1;rounded=0;entryX=0.5;entryY=0;entryDx=0;entryDy=0;exitX=0.25;exitY=1;exitDx=0;exitDy=0;" edge="1" parent="1" source="BWCoMym-XM0AaywVuSAr-14" target="BWCoMym-XM0AaywVuSAr-31">
          <mxGeometry relative="1" as="geometry">
            <mxPoint x="400" y="180" as="sourcePoint" />
            <mxPoint x="560" y="180" as="targetPoint" />
          </mxGeometry>
        </mxCell>
        <mxCell id="BWCoMym-XM0AaywVuSAr-33" value="" style="endArrow=none;html=1;rounded=0;exitX=0.5;exitY=1;exitDx=0;exitDy=0;" edge="1" parent="1" source="BWCoMym-XM0AaywVuSAr-7" target="BWCoMym-XM0AaywVuSAr-34">
          <mxGeometry relative="1" as="geometry">
            <mxPoint x="630" y="-60.67" as="sourcePoint" />
            <mxPoint x="690" y="-20" as="targetPoint" />
          </mxGeometry>
        </mxCell>
        <mxCell id="BWCoMym-XM0AaywVuSAr-34" value="Balance" style="ellipse;whiteSpace=wrap;html=1;align=center;" vertex="1" parent="1">
          <mxGeometry x="640" y="-40" width="100" height="40" as="geometry" />
        </mxCell>
        <mxCell id="BWCoMym-XM0AaywVuSAr-36" value="" style="endArrow=none;html=1;rounded=0;" edge="1" parent="1">
          <mxGeometry relative="1" as="geometry">
            <mxPoint x="210" y="260" as="sourcePoint" />
            <mxPoint x="300" y="320" as="targetPoint" />
            <Array as="points">
              <mxPoint x="330" y="240" />
            </Array>
          </mxGeometry>
        </mxCell>
        <mxCell id="BWCoMym-XM0AaywVuSAr-37" value="Attribute" style="ellipse;whiteSpace=wrap;html=1;align=center;" vertex="1" parent="1">
          <mxGeometry x="220" y="310" width="100" height="40" as="geometry" />
        </mxCell>
        <mxCell id="BWCoMym-XM0AaywVuSAr-38" value="Attribute" style="ellipse;whiteSpace=wrap;html=1;align=center;" vertex="1" parent="1">
          <mxGeometry x="110" y="240" width="100" height="40" as="geometry" />
        </mxCell>
      </root>
    </mxGraphModel>
  </diagram>
</mxfile>
